<?xml version="1.0" encoding="utf-8"?>
<!-- Generator: Adobe Illustrator 26.2.1, SVG Export Plug-In . SVG Version: 6.00 Build 0)  -->
<svg version="1.1" id="Ebene_1" xmlns="http://www.w3.org/2000/svg" xmlns:xlink="http://www.w3.org/1999/xlink" x="0px" y="0px"
	 viewBox="0 0 147.7 26.2" style="enable-background:new 0 0 147.7 26.2;" xml:space="preserve">
<style type="text/css">
	.st0{fill:#00A97A;}
</style>
<g>
	<g>
		<path class="st0" d="M46.8,3.1c5.2,0,5.4,4.5,5.4,4.5c0,4.7-4,4.6-4,4.6c5.8,0,5.6,5.4,5.6,5.4c0,6.4-7.7,6.1-7.7,6.1H32.2
			c0,0,1.6-0.4,1.6-1.9V5.1c0-1.5-1.5-2-1.5-2H46.8z M40.4,6.6v13.4h3.9c0,0,3.4,0,3.2-2.9c0,0,0-2.4-6.3-5.1h2.5
			c0,0,2.7,0.1,2.7-2.8c0-2.7-2.9-2.7-2.9-2.7L40.4,6.6z"/>
		<path class="st0" d="M14.5,3.1c5.2,0,5.4,4.5,5.4,4.5c0,4.7-4,4.6-4,4.6c5.8,0,5.6,5.4,5.6,5.4c0,6.4-7.7,6.1-7.7,6.1H0
			c0,0,1.6-0.4,1.6-1.9V5.1c0-1.5-1.5-2-1.5-2H14.5z M8.1,6.6v13.4H12c0,0,3.4,0,3.2-2.9c0,0,0-2.4-6.3-5.1h2.5c0,0,2.7,0.1,2.7-2.8
			c0-2.7-2.9-2.7-2.9-2.7L8.1,6.6z"/>
		<path class="st0" d="M55.5,3.1c0,0,1.6,0.4,1.6,2v16.6c0,1.5-1.6,2-1.6,2h8.2v-17H67c0,0,3.1,0,3.1,3.2c0,3.2-2.8,3.3-2.8,3.3h-3
			c0,0,1.3,1.1,3,4.8c1.7,3.7,1.7,3.7,1.7,3.7c0,0,1.1,2.1,2.5,2.1h6.5c0,0-1.4-0.4-2.3-2.4c-0.9-2-0.7-1.6-1.8-4.3
			c-1.2-2.9-3.2-2.8-3.2-2.8s5.5-0.1,5.5-5.8c0-5.8-8.3-5.3-8.3-5.3H55.5z"/>
		<path class="st0" d="M96.1,23.7h8.2c0,0-1.2-0.3-2.1-2.6c-0.9-2.4-5.7-15.8-5.7-15.8S96,3.1,94.2,3.1h-9.1c0,0,1.9,0.4,1.3,2
			c-0.3,0.9-2,5.3-3.4,9h-2.1c-1.4,0-1.6,1-2.1,2.3c-0.5,1.3-1.7,2.3-1.7,2.3c0.7-0.4,3.2-0.4,3.2-0.4l1.3,0l-0.4,1.1
			c0,0-1.2,3.2-2.2,4.2H85l2-5.3c0.5,0,0.9,0,1.2,0c1.4-0.1,1.9-0.9,2.2-1.9c0.4-1,1.7-2.6,1.7-2.6c-0.7,0.2-2.7,0.2-2.7,0.2h-1
			l2.1-5.6L96.1,23.7z"/>
		<path class="st0" d="M102.4,3.1c0,0,1.6,0.4,1.6,2.1v11c0,0-0.4,7.8,9.8,7.8c10.2,0,9.9-7.4,9.9-7.4V5.2c0,0,0-2.1-1.9-2.1h-4.8
			c0,0,1.6,0.3,1.6,2.1v11.2c0,0,0.2,3.5-3.9,3.5c0,0-3.6,0.1-3.6-3.7v-11c0,0-0.1-2.1-1.9-2.1H102.4z"/>
		<path class="st0" d="M126.2,3.1c0,0,1.6,0.3,1.6,2.2v16.3c0,1.7-1.6,2.1-1.6,2.1h6.5V12.9l8.3,9.1c0,0,1.1,1.6,3.5,1.6h3.1V5.4
			c0,0,0.2-2.3-1.9-2.3H141c0,0,1.5,0.4,1.5,2.1v8.7L133,3.1H126.2z"/>
	</g>
	<rect x="26.5" class="st0" width="0.8" height="26.2"/>
</g>
</svg>
